<svg viewBox="0 0 640 400" xmlns="http://www.w3.org/2000/svg" role="img">
<defs>
<linearGradient id="bg" x1="0" y1="0" x2="1" y2="1">
<stop offset="0" stop-color="#0a0e17"/>
<stop offset="1" stop-color="#131a2b"/>
</linearGradient>
<linearGradient id="acc" x1="0" y1="0" x2="1" y2="0">
<stop offset="0" stop-color="#22d3ee"/>
<stop offset="1" stop-color="#3b82f6"/>
</linearGradient>
<filter id="glow"><feGaussianBlur stdDeviation="6" result="b"/><feMerge><feMergeNode in="b"/><feMergeNode in="SourceGraphic"/></feMerge></filter>
</defs>
<rect width="640" height="400" fill="url(#bg)"/>
<g opacity="0.08">
<path d="M0 40 H640 M0 120 H640 M0 200 H640 M0 280 H640 M0 360 H640" stroke="#22d3ee" stroke-width="1"/>
</g>
<rect x="0" y="0" width="640" height="36" fill="#0d1220"/>
<circle cx="18" cy="18" r="5" fill="#ef4444"/>
<circle cx="36" cy="18" r="5" fill="#f59e0b"/>
<circle cx="54" cy="18" r="5" fill="#22c55e"/>

<rect x="24" y="60" width="180" height="316" rx="10" fill="#101828" stroke="#22d3ee" stroke-opacity="0.3"/>
<rect x="40" y="80" width="148" height="14" rx="4" fill="url(#acc)"/>
<rect x="40" y="108" width="120" height="8" rx="4" fill="#3b4a63"/>
<rect x="40" y="124" width="100" height="8" rx="4" fill="#3b4a63"/>
<rect x="40" y="150" width="148" height="1" fill="#22334a"/>
<rect x="40" y="164" width="148" height="34" rx="8" fill="#16233a"/>
<rect x="40" y="206" width="148" height="34" rx="8" fill="#16233a"/>
<rect x="40" y="248" width="148" height="34" rx="8" fill="#1a2a44" stroke="#22d3ee" stroke-width="1"/>
<rect x="224" y="60" width="392" height="150" rx="10" fill="#0f1626" stroke="#334155" stroke-width="1"/>
<text x="244" y="90" font-family="monospace" font-size="13" fill="#22d3ee">def check_solution(code):</text>
<text x="244" y="112" font-family="monospace" font-size="13" fill="#94a3b8">    tests = run_tests(code)</text>
<text x="244" y="134" font-family="monospace" font-size="13" fill="#94a3b8">    return tests.passed</text>
<text x="244" y="156" font-family="monospace" font-size="13" fill="#a855f7">&gt;&gt;&gt; All 6 tests passed ✓</text>
<rect x="224" y="228" width="184" height="148" rx="10" fill="#0f1626" stroke="#334155"/>
<text x="240" y="252" font-family="sans-serif" font-size="12" fill="#e6edf3" font-weight="600">Progress</text>
<circle cx="316" cy="312" r="42" fill="none" stroke="#1c2b45" stroke-width="8"/>
<circle cx="316" cy="312" r="42" fill="none" stroke="url(#acc)" stroke-width="8" stroke-dasharray="205" stroke-dashoffset="60" stroke-linecap="round" filter="url(#glow)"/>
<text x="316" y="318" font-family="monospace" font-size="16" fill="#fff" text-anchor="middle">71%</text>
<rect x="424" y="228" width="192" height="148" rx="10" fill="#0f1626" stroke="#334155"/>
<text x="440" y="252" font-family="sans-serif" font-size="12" fill="#e6edf3" font-weight="600">Leaderboard</text>
<rect x="440" y="266" width="160" height="18" rx="4" fill="#16233a"/>
<rect x="440" y="290" width="160" height="18" rx="4" fill="#16233a"/>
<rect x="440" y="314" width="120" height="18" rx="4" fill="#16233a"/>

</svg>