<svg viewBox="0 0 640 400" xmlns="http://www.w3.org/2000/svg" role="img">
<defs>
<linearGradient id="bg" x1="0" y1="0" x2="1" y2="1">
<stop offset="0" stop-color="#0a0e17"/>
<stop offset="1" stop-color="#131a2b"/>
</linearGradient>
<linearGradient id="acc" x1="0" y1="0" x2="1" y2="0">
<stop offset="0" stop-color="#a855f7"/>
<stop offset="1" stop-color="#3b82f6"/>
</linearGradient>
<filter id="glow"><feGaussianBlur stdDeviation="6" result="b"/><feMerge><feMergeNode in="b"/><feMergeNode in="SourceGraphic"/></feMerge></filter>
</defs>
<rect width="640" height="400" fill="url(#bg)"/>
<g opacity="0.08">
<path d="M0 40 H640 M0 120 H640 M0 200 H640 M0 280 H640 M0 360 H640" stroke="#a855f7" stroke-width="1"/>
</g>
<rect x="0" y="0" width="640" height="36" fill="#0d1220"/>
<circle cx="18" cy="18" r="5" fill="#ef4444"/>
<circle cx="36" cy="18" r="5" fill="#f59e0b"/>
<circle cx="54" cy="18" r="5" fill="#22c55e"/>

<rect x="24" y="52" width="592" height="324" rx="10" fill="#0f1626" stroke="#334155"/>
<circle cx="320" cy="150" r="46" fill="#152238" stroke="url(#acc)" stroke-width="2" filter="url(#glow)"/>
<path d="M320 130 v40 M308 140 v20 M332 140 v20 M296 148 v6 M344 148 v6" stroke="#22d3ee" stroke-width="4" stroke-linecap="round"/>
<g stroke="#a855f7" stroke-opacity="0.5" fill="none">
<circle cx="320" cy="150" r="62"/><circle cx="320" cy="150" r="78"/>
</g>
<rect x="120" y="240" width="400" height="10" rx="5" fill="#1c2b45"/>
<rect x="120" y="240" width="240" height="10" rx="5" fill="url(#acc)"/>
<text x="140" y="280" font-family="monospace" font-size="12" fill="#94a3b8">"Danna aikin gona kake bukata?" (press 1)</text>
<text x="140" y="300" font-family="monospace" font-size="12" fill="#94a3b8">"Ana neman ma'aikaci..." — matching in progress</text>
<text x="140" y="330" font-family="sans-serif" font-size="11" fill="#22d3ee">Hausa · English · offline-first IVR</text>

</svg>