<svg viewBox="0 0 640 400" xmlns="http://www.w3.org/2000/svg" role="img">
<defs>
<linearGradient id="bg" x1="0" y1="0" x2="1" y2="1">
<stop offset="0" stop-color="#0a0e17"/>
<stop offset="1" stop-color="#131a2b"/>
</linearGradient>
<linearGradient id="acc" x1="0" y1="0" x2="1" y2="0">
<stop offset="0" stop-color="#22c55e"/>
<stop offset="1" stop-color="#22d3ee"/>
</linearGradient>
<filter id="glow"><feGaussianBlur stdDeviation="6" result="b"/><feMerge><feMergeNode in="b"/><feMergeNode in="SourceGraphic"/></feMerge></filter>
</defs>
<rect width="640" height="400" fill="url(#bg)"/>
<g opacity="0.08">
<path d="M0 40 H640 M0 120 H640 M0 200 H640 M0 280 H640 M0 360 H640" stroke="#22c55e" stroke-width="1"/>
</g>
<rect x="0" y="0" width="640" height="36" fill="#0d1220"/>
<circle cx="18" cy="18" r="5" fill="#ef4444"/>
<circle cx="36" cy="18" r="5" fill="#f59e0b"/>
<circle cx="54" cy="18" r="5" fill="#22c55e"/>

<rect x="24" y="52" width="380" height="324" rx="10" fill="#0f1626" stroke="#334155"/>
<text x="40" y="78" font-family="sans-serif" font-size="12" fill="#e6edf3" font-weight="600">BTC/USDT</text>
<text x="340" y="78" font-family="monospace" font-size="12" fill="#22c55e" text-anchor="end">+4.82%</text>
<g stroke="#1c2b45"><path d="M40 100 H380 M40 160 H380 M40 220 H380 M40 280 H380"/></g>
<g stroke="#22c55e" stroke-width="4" stroke-linecap="round">
<path d="M60 260 V220"/><path d="M90 240 V180"/><path d="M120 200 V150"/><path d="M150 220 V170"/>
</g>
<g stroke="#ef4444" stroke-width="4" stroke-linecap="round">
<path d="M180 190 V240"/><path d="M210 160 V210"/>
</g>
<g stroke="#22c55e" stroke-width="4" stroke-linecap="round">
<path d="M240 200 V140"/><path d="M270 170 V110"/><path d="M300 150 V95"/><path d="M330 130 V180"/><path d="M360 160 V115"/>
</g>
<rect x="424" y="52" width="192" height="150" rx="10" fill="#0f1626" stroke="#334155"/>
<text x="440" y="76" font-family="sans-serif" font-size="12" fill="#e6edf3" font-weight="600">AI signal</text>
<rect x="440" y="90" width="160" height="26" rx="6" fill="#0f2417" stroke="#22c55e" stroke-opacity="0.5"/>
<text x="452" y="107" font-family="monospace" font-size="12" fill="#22c55e">STRONG BUY · 82%</text>
<rect x="440" y="128" width="160" height="8" rx="4" fill="#1c2b45"/>
<rect x="440" y="128" width="130" height="8" rx="4" fill="url(#acc)"/>
<rect x="424" y="226" width="192" height="150" rx="10" fill="#0f1626" stroke="#334155"/>
<text x="440" y="250" font-family="sans-serif" font-size="12" fill="#e6edf3" font-weight="600">Portfolio</text>
<text x="440" y="286" font-family="monospace" font-size="20" fill="#fff">$12,480.55</text>
<text x="440" y="306" font-family="monospace" font-size="11" fill="#22c55e">▲ 3.1% today</text>

</svg>