<svg viewBox="0 0 640 400" xmlns="http://www.w3.org/2000/svg" role="img">
<defs>
<linearGradient id="bg" x1="0" y1="0" x2="1" y2="1">
<stop offset="0" stop-color="#0a0e17"/>
<stop offset="1" stop-color="#131a2b"/>
</linearGradient>
<linearGradient id="acc" x1="0" y1="0" x2="1" y2="0">
<stop offset="0" stop-color="#a855f7"/>
<stop offset="1" stop-color="#22d3ee"/>
</linearGradient>
<filter id="glow"><feGaussianBlur stdDeviation="6" result="b"/><feMerge><feMergeNode in="b"/><feMergeNode in="SourceGraphic"/></feMerge></filter>
</defs>
<rect width="640" height="400" fill="url(#bg)"/>
<g opacity="0.08">
<path d="M0 40 H640 M0 120 H640 M0 200 H640 M0 280 H640 M0 360 H640" stroke="#a855f7" stroke-width="1"/>
</g>
<rect x="0" y="0" width="640" height="36" fill="#0d1220"/>
<circle cx="18" cy="18" r="5" fill="#ef4444"/>
<circle cx="36" cy="18" r="5" fill="#f59e0b"/>
<circle cx="54" cy="18" r="5" fill="#22c55e"/>

<rect x="24" y="52" width="592" height="90" rx="10" fill="#0f1626" stroke="#334155"/>
<text x="44" y="80" font-family="monospace" font-size="13" fill="#a855f7">$ synapse --scan ./incident_042.log</text>
<text x="44" y="102" font-family="monospace" font-size="12" fill="#94a3b8">analyzing 18,204 events ... anomalies: 7 flagged</text>
<text x="44" y="122" font-family="monospace" font-size="12" fill="#ef4444">! CRITICAL: lateral movement pattern detected (host-14)</text>
<rect x="24" y="154" width="284" height="222" rx="10" fill="#0f1626" stroke="#334155"/>
<text x="40" y="178" font-family="sans-serif" font-size="12" fill="#e6edf3" font-weight="600">Threat severity</text>
<rect x="40" y="196" width="240" height="14" rx="7" fill="#1c2b45"/>
<rect x="40" y="196" width="180" height="14" rx="7" fill="url(#acc)"/>
<g stroke="#a855f7" stroke-width="2" fill="none" opacity="0.8">
<path d="M40 320 L80 280 L120 300 L160 240 L200 260 L240 210 L280 230"/>
</g>
<circle cx="120" cy="300" r="4" fill="#a855f7"/>
<circle cx="240" cy="210" r="4" fill="#22d3ee"/>
<rect x="324" y="154" width="292" height="105" rx="10" fill="#0f1626" stroke="#334155"/>
<text x="340" y="178" font-family="sans-serif" font-size="12" fill="#e6edf3" font-weight="600">Node graph</text>
<circle cx="380" cy="220" r="8" fill="#22d3ee"/>
<circle cx="440" cy="200" r="6" fill="#3b82f6"/>
<circle cx="480" cy="235" r="10" fill="#ef4444"/>
<circle cx="540" cy="210" r="6" fill="#3b82f6"/>
<circle cx="580" cy="230" r="6" fill="#22d3ee"/>
<g stroke="#334155" stroke-width="1.5">
<path d="M380 220 L440 200 M440 200 L480 235 M480 235 L540 210 M540 210 L580 230 M380 220 L480 235"/>
</g>
<rect x="324" y="271" width="292" height="105" rx="10" fill="#0f1626" stroke="#334155"/>
<text x="340" y="295" font-family="sans-serif" font-size="12" fill="#e6edf3" font-weight="600">AI summary</text>
<rect x="340" y="308" width="256" height="8" rx="4" fill="#1c2b45"/>
<rect x="340" y="324" width="220" height="8" rx="4" fill="#1c2b45"/>
<rect x="340" y="340" width="240" height="8" rx="4" fill="#1c2b45"/>

</svg>